<svg xmlns="http://www.w3.org/2000/svg" xmlns:xlink="http://www.w3.org/1999/xlink" width="41" zoomAndPan="magnify" viewBox="0 0 30.75 30.750001" height="41" preserveAspectRatio="xMidYMid meet" version="1.0"><defs><clipPath id="3d6741e49c"><path d="M 6 6 L 27.613281 6 L 27.613281 27.375 L 6 27.375 Z M 6 6 " clip-rule="nonzero"/></clipPath><clipPath id="d3232e8c0a"><path d="M 6 6 L 27 6 L 27 26 L 6 26 Z M 6 6 " clip-rule="nonzero"/></clipPath><clipPath id="bdc5cf6787"><path d="M 25.734375 11.296875 L 8.769531 6.75 C 7.871094 6.507812 7.023438 7.015625 6.71875 7.78125 C 6.589844 8.105469 6.558594 8.476562 6.660156 8.859375 L 11.207031 25.824219 C 11.433594 26.675781 12.195312 27.128906 12.945312 27.101562 C 13.476562 27.082031 14.003906 26.820312 14.335938 26.289062 L 17.601562 21.027344 L 21.453125 24.878906 C 22.019531 25.441406 22.796875 25.660156 23.523438 25.535156 C 23.988281 25.453125 24.429688 25.234375 24.789062 24.878906 C 25.148438 24.515625 25.367188 24.066406 25.445312 23.597656 C 25.566406 22.875 25.347656 22.105469 24.789062 21.546875 L 20.9375 17.691406 L 26.199219 14.425781 C 26.664062 14.132812 26.921875 13.691406 26.992188 13.230469 C 27.113281 12.417969 26.660156 11.542969 25.734375 11.296875 Z M 25.734375 11.296875 " clip-rule="nonzero"/></clipPath><clipPath id="7a6e9a7045"><path d="M 0 0 L 27.613281 0 L 27.613281 27.375 L 0 27.375 Z M 0 0 " clip-rule="nonzero"/></clipPath><clipPath id="0dbc55ffb5"><path d="M 0 0 L 24 0 L 24 27.375 L 0 27.375 Z M 0 0 " clip-rule="nonzero"/></clipPath><clipPath id="b6edec9932"><path d="M 0 0 L 20 0 L 20 27.375 L 0 27.375 Z M 0 0 " clip-rule="nonzero"/></clipPath><clipPath id="43d642eaba"><path d="M 0 0 L 27.613281 0 L 27.613281 21 L 0 21 Z M 0 0 " clip-rule="nonzero"/></clipPath></defs><g clip-path="url(#3d6741e49c)"><path fill="#fff702" d="M 25.734375 11.296875 L 8.769531 6.75 C 7.871094 6.507812 7.023438 7.015625 6.71875 7.78125 C 6.589844 8.105469 6.558594 8.476562 6.660156 8.859375 L 11.207031 25.824219 C 11.433594 26.675781 12.195312 27.128906 12.945312 27.101562 C 13.476562 27.082031 14.003906 26.820312 14.335938 26.289062 L 17.601562 21.027344 L 21.453125 24.878906 C 22.019531 25.441406 22.796875 25.660156 23.523438 25.535156 C 23.988281 25.453125 24.429688 25.234375 24.789062 24.878906 C 25.148438 24.515625 25.367188 24.066406 25.445312 23.597656 C 25.566406 22.875 25.347656 22.105469 24.789062 21.546875 L 20.9375 17.691406 L 26.199219 14.425781 C 26.664062 14.132812 26.921875 13.691406 26.992188 13.230469 C 27.113281 12.417969 26.660156 11.542969 25.734375 11.296875 Z M 25.734375 11.296875 " fill-opacity="1" fill-rule="nonzero"/></g><g clip-path="url(#d3232e8c0a)"><g clip-path="url(#bdc5cf6787)"><path fill="#30ff02" d="M 6.597656 7.539062 L 25.066406 12.726562 C 25.375 12.8125 25.433594 13.222656 25.160156 13.390625 L 18.515625 17.496094 L 23.886719 22.867188 C 23.886719 22.867188 25.09375 25.378906 22.601562 25.34375 C 21.394531 25.328125 24.5 26.898438 25.253906 24.183594 C 26.007812 21.46875 23.347656 20.121094 23.347656 20.121094 L 20.941406 17.714844 L 26.914062 13.898438 L 26.664062 11.910156 L 21.851562 10.25 L 11.652344 7.347656 L 7.503906 6.847656 " fill-opacity="1" fill-rule="nonzero"/></g></g><g clip-path="url(#7a6e9a7045)"><path stroke-linecap="butt" transform="matrix(0.082938, 0, 0, 0.082938, -1.35287, -0.854858)" fill="none" stroke-linejoin="miter" d="M 326.596431 146.515923 L 122.047853 91.693324 C 111.215209 88.77322 100.994845 94.896019 97.321165 104.127316 C 95.766916 108.036487 95.390129 112.51084 96.614689 117.126489 L 151.437287 321.675066 C 154.168997 331.942529 163.353195 337.40595 172.396098 337.07626 C 178.801488 336.840768 185.159779 333.685172 189.163147 327.279782 L 228.537453 263.838167 L 274.976527 310.277241 C 281.805803 317.059418 291.178395 319.696932 299.938707 318.189781 C 305.543422 317.200714 310.865548 314.5632 315.198605 310.277241 C 319.531663 305.897085 322.169176 300.480763 323.111145 294.828949 C 324.571197 286.115735 321.933684 276.83734 315.198605 270.102261 L 268.759531 223.616089 L 332.201146 184.241783 C 337.805862 180.709399 340.91436 175.387274 341.762132 169.829657 C 343.222184 160.033179 337.758764 149.483125 326.596431 146.515923 Z M 326.596431 146.515923 " stroke="#66423e" stroke-width="7.56" stroke-opacity="1" stroke-miterlimit="10"/></g><g clip-path="url(#0dbc55ffb5)"><path stroke-linecap="round" transform="matrix(0.082938, 0, 0, 0.082938, -1.35287, -0.854858)" fill="none" stroke-linejoin="miter" d="M 123.319511 134.223227 L 166.037807 285.173766 " stroke="#ffffff" stroke-width="9.08" stroke-opacity="1" stroke-miterlimit="10"/></g><path stroke-linecap="round" transform="matrix(0.082938, 0, 0, 0.082938, -1.35287, -0.854858)" fill="none" stroke-linejoin="miter" d="M 55.921626 109.308146 L 6.421153 117.597473 " stroke="#ffffff" stroke-width="12.86" stroke-opacity="1" stroke-miterlimit="10"/><path stroke-linecap="round" transform="matrix(0.082938, 0, 0, 0.082938, -1.35287, -0.854858)" fill="none" stroke-linejoin="miter" d="M 109.331271 55.945599 L 117.620598 6.445126 " stroke="#ffffff" stroke-width="12.86" stroke-opacity="1" stroke-miterlimit="10"/><g clip-path="url(#b6edec9932)"><path stroke-linecap="round" transform="matrix(0.082938, 0, 0, 0.082938, -1.35287, -0.854858)" fill="none" stroke-linejoin="miter" d="M 72.688675 140.016336 L 37.176442 175.481471 " stroke="#ffffff" stroke-width="12.86" stroke-opacity="1" stroke-miterlimit="10"/></g><g clip-path="url(#43d642eaba)"><path stroke-linecap="round" transform="matrix(0.082938, 0, 0, 0.082938, -1.35287, -0.854858)" fill="none" stroke-linejoin="miter" d="M 174.232938 38.472073 L 138.720705 73.937208 " stroke="#ffffff" stroke-width="12.86" stroke-opacity="1" stroke-miterlimit="10"/></g><path stroke-linecap="round" transform="matrix(0.082938, 0, 0, 0.082938, -1.35287, -0.854858)" fill="none" stroke-linejoin="miter" d="M 65.671005 66.919539 L 28.604524 29.853057 " stroke="#ffffff" stroke-width="12.86" stroke-opacity="1" stroke-miterlimit="10"/></svg>